<?xml version="1.0" standalone="no"?>
<!DOCTYPE svg PUBLIC "-//W3C//DTD SVG 20010904//EN"
 "http://www.w3.org/TR/2001/REC-SVG-20010904/DTD/svg10.dtd">
<svg version="1.0" xmlns="http://www.w3.org/2000/svg"
 width="300.000000pt" height="79.000000pt" viewBox="0 0 300.000000 79.000000"
 preserveAspectRatio="xMidYMid meet">
<metadata>
Created by potrace 1.10, written by Peter Selinger 2001-2011
</metadata>
<g transform="translate(0.000000,79.000000) scale(0.050000,-0.050000)"
fill="#000000" stroke="none">
<path d="M4881 1249 c-332 -93 -498 -488 -361 -855 176 -470 944 -471 1119 -1
199 530 -223 1006 -758 856z m353 -244 c183 -119 177 -578 -8 -700 -211 -138
-434 43 -433 353 1 322 218 493 441 347z"/>
<path d="M100 650 l0 -590 430 0 430 0 0 120 0 120 -280 0 -280 0 0 139 0 140
255 5 255 6 6 115 6 115 -261 0 -261 0 0 100 0 100 280 0 280 0 0 110 0 110
-430 0 -430 0 0 -590z"/>
<path d="M1185 1115 c49 -69 140 -199 203 -289 l114 -165 -191 -269 c-253
-357 -249 -332 -56 -332 l160 0 125 190 c151 230 125 230 270 0 l120 -190 176
0 c162 0 174 3 155 35 -11 19 -106 158 -209 308 l-189 272 184 258 c102 141
192 268 200 282 12 19 -23 25 -151 25 l-167 0 -111 -164 c-139 -207 -128 -206
-258 -6 l-110 169 -177 1 -177 0 89 -125z"/>
<path d="M2460 650 l0 -590 150 0 150 0 0 260 0 260 250 0 250 0 0 110 0 110
-250 0 -250 0 0 110 0 110 270 0 270 0 0 110 0 110 -420 0 -420 0 0 -590z"/>
<path d="M3505 655 l5 -585 425 -5 425 -6 0 121 0 120 -270 0 -270 0 0 470 0
470 -160 0 -161 0 6 -585z"/>
</g>
</svg>
