<?xml version="1.0" standalone="no"?>
<!DOCTYPE svg PUBLIC "-//W3C//DTD SVG 20010904//EN"
 "http://www.w3.org/TR/2001/REC-SVG-20010904/DTD/svg10.dtd">
<svg version="1.0" xmlns="http://www.w3.org/2000/svg"
 width="900.000000pt" height="900.000000pt" viewBox="0 0 900.000000 900.000000"
 preserveAspectRatio="xMidYMid meet">
<metadata>
Created by potrace 1.10, written by Peter Selinger 2001-2011
</metadata>
<g transform="translate(0.000000,900.000000) scale(0.100000,-0.100000)"
fill="#000000" stroke="none">
<path d="M5220 7376 c-164 -37 -290 -106 -404 -221 -246 -250 -303 -614 -146
-930 208 -421 735 -569 1136 -320 111 70 220 184 276 292 78 149 93 212 93
393 -1 148 -2 159 -33 249 -71 204 -196 355 -382 459 -145 81 -375 114 -540
78z m342 -269 c220 -80 367 -286 368 -514 0 -154 -53 -286 -160 -393 -109
-109 -232 -160 -385 -160 -156 0 -279 51 -391 164 -87 87 -129 170 -152 298
-13 75 -14 101 -4 160 25 143 108 287 211 362 58 42 166 94 225 106 72 16 214
4 288 -23z"/>
<path d="M4358 5570 c-16 -10 -18 -35 -18 -290 0 -277 0 -279 22 -294 18 -13
52 -16 168 -16 162 0 191 -9 230 -72 44 -72 50 -118 66 -533 16 -402 15 -1297
-1 -1357 -12 -47 -71 -105 -123 -122 -27 -9 -107 -18 -190 -22 -89 -4 -149
-12 -160 -20 -15 -11 -17 -39 -17 -302 0 -242 2 -292 15 -307 14 -17 60 -18
1108 -11 601 4 1104 11 1117 16 13 5 26 17 28 27 3 10 7 139 9 286 3 229 1
269 -12 277 -8 5 -58 10 -111 10 -111 0 -178 17 -238 61 -82 59 -76 -52 -72
1369 2 1046 1 1268 -11 1282 -12 16 -81 18 -903 23 -643 4 -895 3 -907 -5z"/>
<path d="M3642 4888 c-9 -9 -12 -320 -12 -1340 l0 -1328 26 -10 c34 -13 340
-13 365 0 19 11 19 36 19 1335 0 728 -3 1330 -6 1339 -5 14 -32 16 -193 16
-132 0 -191 -4 -199 -12z"/>
<path d="M3111 4463 c-58 -2 -111 -9 -118 -15 -11 -8 -13 -218 -13 -1119 0
-1086 0 -1109 19 -1119 11 -5 76 -10 145 -10 100 0 128 3 140 16 14 14 16 129
16 1118 0 871 -3 1106 -12 1114 -19 15 -62 18 -177 15z"/>
<path d="M2538 4032 c-25 -2 -51 -9 -57 -16 -7 -8 -11 -292 -11 -877 0 -475
-1 -874 0 -886 0 -38 26 -53 94 -53 107 0 96 -100 96 919 0 492 -3 898 -7 901
-12 11 -62 16 -115 12z"/>
<path d="M2056 3578 c-14 -20 -16 -100 -16 -670 0 -391 4 -657 10 -672 12 -33
52 -43 85 -22 l25 16 0 670 c0 594 -2 670 -16 684 -23 24 -70 20 -88 -6z"/>
<path d="M2016 1944 c-14 -13 -16 -56 -16 -318 0 -268 2 -305 16 -317 20 -16
89 -18 105 -2 15 15 14 620 -2 639 -16 19 -84 18 -103 -2z"/>
<path d="M2300 1941 c-16 -30 -14 -616 3 -629 27 -23 65 -24 86 -3 20 20 21
32 21 184 0 170 6 200 37 181 10 -5 71 -89 135 -185 97 -143 124 -176 150
-185 43 -15 96 -7 109 17 6 12 9 130 7 320 -3 331 -1 322 -68 317 -53 -4 -60
-28 -60 -208 0 -157 -6 -188 -33 -177 -8 3 -64 81 -125 174 -60 92 -120 178
-132 191 -31 30 -114 32 -130 3z"/>
<path d="M3020 1941 c-6 -12 -10 -132 -10 -319 0 -332 -1 -326 65 -326 66 0
65 -6 65 326 0 187 -4 307 -10 319 -8 14 -21 19 -55 19 -34 0 -47 -5 -55 -19z"/>
<path d="M3226 1938 c-22 -30 -20 -44 6 -62 15 -11 45 -16 89 -16 106 0 104 5
106 -279 1 -130 2 -244 2 -253 2 -40 109 -43 125 -3 3 9 6 126 6 259 0 287 -4
276 104 276 82 0 106 11 106 48 0 51 -5 52 -276 52 -250 0 -253 0 -268 -22z"/>
<path d="M3846 1944 c-14 -13 -16 -56 -16 -318 0 -339 -2 -331 70 -331 72 0
70 -7 70 324 0 338 -1 341 -70 341 -22 0 -45 -7 -54 -16z"/>
<path d="M4282 1947 c-6 -7 -52 -110 -101 -228 -49 -118 -106 -253 -126 -302
-39 -92 -40 -116 -3 -118 77 -4 95 6 124 72 15 33 35 64 45 69 23 13 249 13
269 0 8 -5 28 -37 45 -72 26 -55 34 -64 65 -71 45 -10 90 5 90 32 0 25 -241
585 -263 611 -13 16 -29 20 -76 20 -36 0 -63 -5 -69 -13z m85 -185 c15 -10 73
-145 73 -171 0 -29 -33 -42 -97 -39 -77 4 -85 18 -55 106 24 69 47 112 60 112
4 0 12 -4 19 -8z"/>
<path d="M4582 1948 c-19 -19 -15 -66 7 -78 11 -5 51 -10 89 -10 52 0 73 -4
83 -17 11 -12 15 -74 17 -274 l3 -258 34 -11 c27 -9 41 -8 62 2 l28 13 5 258
c6 301 0 287 110 287 96 0 140 40 92 83 -16 15 -50 17 -268 17 -181 0 -253 -3
-262 -12z"/>
<path d="M5195 1946 c-18 -13 -19 -30 -16 -317 2 -294 3 -305 23 -321 27 -24
63 -23 88 2 19 19 20 33 20 316 0 184 -4 303 -10 315 -13 23 -76 26 -105 5z"/>
<path d="M5392 1948 c-7 -7 -12 -18 -12 -25 0 -18 208 -572 225 -599 27 -42
133 -41 162 2 28 43 224 578 221 604 -3 22 -8 25 -49 28 -64 4 -73 -10 -149
-227 -58 -170 -80 -211 -109 -211 -14 0 -22 17 -101 235 -34 93 -68 178 -77
187 -19 21 -92 25 -111 6z"/>
<path d="M6090 1941 c-6 -12 -10 -132 -10 -320 l0 -301 25 -16 c22 -14 55 -16
256 -12 214 3 232 5 245 23 19 26 18 41 -6 65 -18 18 -33 20 -184 20 -178 0
-189 3 -202 56 -8 33 1 101 16 119 10 12 43 15 161 15 136 0 151 2 169 20 11
11 20 27 20 35 0 8 -9 24 -20 35 -18 18 -33 20 -165 20 -134 0 -147 2 -166 21
-17 17 -20 29 -16 61 10 74 19 78 194 78 87 0 163 5 174 10 22 12 26 59 7 78
-9 9 -78 12 -250 12 -224 0 -238 -1 -248 -19z"/>
</g>
</svg>
